<svg xmlns="http://www.w3.org/2000/svg" viewBox="0 0 100 100">
  <rect width="100" height="100" rx="15" fill="#24292e"/>
  <path fill="white" d="M50 10C27.9 10 10 27.9 10 50c0 17.7 11.5 32.7 27.4 38 2 .4 2.7-.9 2.7-1.9v-6.7c-11.1 2.4-13.5-5.4-13.5-5.4-1.8-4.6-4.5-5.9-4.5-5.9-3.6-2.5.3-2.4.3-2.4 4 .3 6.1 4.1 6.1 4.1 3.6 6.1 9.4 4.3 11.7 3.3.4-2.6 1.4-4.3 2.5-5.3-8.9-1-18.2-4.4-18.2-19.8 0-4.4 1.6-7.9 4.1-10.7-.4-1-1.8-5.1.4-10.6 0 0 3.4-1.1 11 4.1 3.2-.9 6.6-1.3 10-1.3s6.8.4 10 1.3c7.6-5.2 11-4.1 11-4.1 2.2 5.5.8 9.6.4 10.6 2.6 2.8 4.1 6.4 4.1 10.7 0 15.4-9.4 18.8-18.3 19.8 1.4 1.2 2.7 3.7 2.7 7.4v11c0 1 .7 2.3 2.8 1.9C78.6 82.7 90 67.7 90 50 90 27.9 72.1 10 50 10z"/>
</svg>
